<svg xmlns="http://www.w3.org/2000/svg" width="46.019" height="45.839" viewBox="0 0 46.019 45.839">
  <g id="politics" transform="translate(0 -1)">
    <g id="Group_124" data-name="Group 124" transform="translate(0 1)">
      <path id="Path_213" data-name="Path 213" d="M137.251,384.3v3.147a2.048,2.048,0,0,0,2.045,2.045h17.256a2.048,2.048,0,0,0,2.045-2.045V384.3a2.046,2.046,0,0,0-2.045-2.043H139.3A2.046,2.046,0,0,0,137.251,384.3Zm19.549,0v3.147a.251.251,0,0,1-.248.248H139.3a.248.248,0,0,1-.248-.248V384.3a.25.25,0,0,1,.248-.245h17.256A.25.25,0,0,1,156.8,384.3Z" transform="translate(-124.915 -347.988)" fill="#0088d0"/>
      <path id="Path_214" data-name="Path 214" d="M43.637,26.413h-.451V22.584a.417.417,0,0,0-.014-.146.893.893,0,0,0-.2-.423l-2.09-2.5a2.916,2.916,0,0,0-.236-3.414l-.837-1a2.914,2.914,0,0,0-4.1-.363h0a2.913,2.913,0,0,0-.358,4.1l.836,1a2.889,2.889,0,0,0,1.975,1.028q.131.012.262.012a2.89,2.89,0,0,0,1.082-.209l1.88,2.245v3.493H34.16c-.072-5.048-.831-7.556-4.464-9.3L28.254,15.64a5.549,5.549,0,0,0,1.808-3.784v-3.8a7.054,7.054,0,1,0-14.108,0v3.8a5.55,5.55,0,0,0,1.809,3.785L16.32,17.116c-3.633,1.742-4.392,4.25-4.464,9.3H4.628V22.92l1.88-2.245a2.892,2.892,0,0,0,1.083.209q.132,0,.265-.012a2.882,2.882,0,0,0,1.971-1.027l.838-1A2.91,2.91,0,0,0,6.2,15.108l-.84,1a2.921,2.921,0,0,0-.234,3.411l-2.091,2.5a.894.894,0,0,0-.207.516c0,.014,0,.029,0,.047s0,.007,0,.011,0,0,0,0v3.82H2.381A2.384,2.384,0,0,0,0,28.795v1.549a2.384,2.384,0,0,0,2.382,2.382h1.1L6.746,45.5a1.528,1.528,0,0,0,1.5,1.338H37.77a1.534,1.534,0,0,0,1.5-1.336l3.264-12.777h1.1a2.384,2.384,0,0,0,2.382-2.382V28.8a2.384,2.384,0,0,0-2.382-2.382Zm-4.5-7.584a1.117,1.117,0,0,1-1.566-.138l-.837-1a1.109,1.109,0,0,1,.951-1.82,1.1,1.1,0,0,1,.753.392l.838,1a1.114,1.114,0,0,1-.138,1.567ZM6.744,17.262l.839-1a1.1,1.1,0,0,1,.755-.391q.051,0,.1,0a1.113,1.113,0,0,1,.85,1.825l-.84,1a1.117,1.117,0,0,1-1.565.138,1.118,1.118,0,0,1-.139-1.568ZM23.008,2.8a5.263,5.263,0,0,1,5.257,5.257v.674A16.309,16.309,0,0,1,23.653,7.5a10.162,10.162,0,0,0-3.506-.906,3.91,3.91,0,0,0-2.35.769A5.265,5.265,0,0,1,23.008,2.8Zm-5.256,9.059v-1.9c1.6-2.186,2.776-1.735,5.257-.781a17.758,17.758,0,0,0,5.256,1.359v1.325c0,2.208-3.418,4.544-5.257,4.544S17.752,14.064,17.752,11.856Zm10.122,5.967L25.4,20.1l-1.049-2.11a8.875,8.875,0,0,0,2.508-1.2Zm-6.214.167L20.612,20.1l-2.469-2.277,1.011-1.033A8.871,8.871,0,0,0,21.66,17.991Zm-4.963.945,3.577,3.3a.9.9,0,0,0,1.414-.261l1.32-2.656,1.32,2.656a.9.9,0,0,0,1.414.261l3.577-3.3c2.319,1.232,2.975,2.86,3.044,7.477H13.654c.069-4.617.725-6.245,3.044-7.477ZM44.221,30.344a.585.585,0,0,1-.584.584h-16.6a.9.9,0,1,0,0,1.8h13.64L37.535,45.041H8.484L5.338,32.726h13.63a.9.9,0,0,0,0-1.8H2.382a.592.592,0,0,1-.584-.584V28.8a.592.592,0,0,1,.584-.584H43.637a.592.592,0,0,1,.584.584Z" transform="translate(0 -1)" fill="#0088d0"/>
      <path id="Path_215" data-name="Path 215" d="M246.855,335.777h0a.9.9,0,1,0-.9-.9A.9.9,0,0,0,246.857,335.777Z" transform="translate(-223.849 -304.051)" fill="#0088d0"/>
    </g>
  </g>
</svg>
