<svg xmlns="http://www.w3.org/2000/svg" width="46.629" height="36.787" viewBox="0 0 46.629 36.787">
  <g id="XMLID_1366_" transform="translate(0.004 -54)">
    <g id="XMLID_267_" transform="translate(0 53.996)">
      <path id="XMLID_1361_" d="M44.44,78.175V65.827a.91.91,0,0,0-.495-.8L22.635,54.1a.91.91,0,0,0-.831,0l-5.821,2.985a.911.911,0,1,0,.831,1.621l5.4-2.772,17.538,8.994H24.8a2.732,2.732,0,1,0,0,1.821H39.758L22.22,75.74,2.907,65.84l6.615-3.393a.911.911,0,1,0-.831-1.621l-8.2,4.2a.911.911,0,0,0,0,1.621l7.42,3.8v7.832A2.721,2.721,0,0,0,9.4,80.714l11.573,5.935a2.738,2.738,0,0,0,2.493,0l11.573-5.935a2.721,2.721,0,0,0,1.485-2.431V70.451l6.094-3.125V78.175a3.1,3.1,0,0,0-2.186,2.959v8.742a.911.911,0,0,0,.911.911h4.371a.911.911,0,0,0,.911-.911V81.134a3.1,3.1,0,0,0-2.185-2.959ZM22.22,66.746a.911.911,0,1,1,.911-.911.911.911,0,0,1-.911.911ZM34.7,78.283a.907.907,0,0,1-.5.81L22.635,85.028a.913.913,0,0,1-.831,0L10.231,79.093a.907.907,0,0,1-.5-.81v-6.9L21.8,77.573a.91.91,0,0,0,.831,0L34.7,71.385v6.9ZM44.8,88.966H42.25V81.134a1.275,1.275,0,1,1,2.55,0Z" transform="translate(0 -53.996)" fill="#b37aeb"/>
      <path id="XMLID_1595_" d="M130.949,109.129a.909.909,0,1,0-.644-.266A.909.909,0,0,0,130.949,109.129Z" transform="translate(-118.196 -102.453)" fill="#b37aeb"/>
    </g>
  </g>
</svg>
