<svg xmlns="http://www.w3.org/2000/svg" width="29.121" height="40.842" viewBox="0 0 29.121 40.842">
  <g id="lab" transform="translate(-0.004)">
    <path id="Path_172" data-name="Path 172" d="M28.829,35.385,20.192,14.334a9.606,9.606,0,0,1-.722-3.662V5.107a2.229,2.229,0,0,1,.657-1.586,2.718,2.718,0,0,0,.8-1.934V.8a.8.8,0,0,0-.8-.8H8.993a.8.8,0,0,0-.8.8v.788A2.718,2.718,0,0,0,9,3.52a2.229,2.229,0,0,1,.657,1.587v5.564a9.6,9.6,0,0,1-.722,3.662L6.559,20.118v.007L.3,35.385a3.956,3.956,0,0,0,3.66,5.457H25.169a3.955,3.955,0,0,0,3.66-5.457ZM10.408,14.939a11.187,11.187,0,0,0,.841-4.268V5.107a3.814,3.814,0,0,0-1.124-2.714,1.134,1.134,0,0,1-.334-.8h9.542a1.133,1.133,0,0,1-.334.8,3.814,3.814,0,0,0-1.124,2.714v5.564a11.193,11.193,0,0,0,.841,4.268l1.926,4.695H8.482ZM27.129,38.2a2.325,2.325,0,0,1-1.96,1.046H3.955a2.364,2.364,0,0,1-2.338-2.7H2.932a.8.8,0,1,0,0-1.6H2.2l.916-2.234H4.461a.8.8,0,1,0,0-1.6H3.77l.916-2.234H6.069a.8.8,0,1,0,0-1.6H5.341l.916-2.234H7.678a.8.8,0,0,0,0-1.6H6.911l.916-2.234H21.3l6.056,14.762A2.326,2.326,0,0,1,27.129,38.2Zm0,0" fill="#8bc058"/>
    <path id="Path_173" data-name="Path 173" d="M294.309,438.5a.8.8,0,1,0-1.477.6v.01a.8.8,0,1,0,1.476-.6Zm0,0" transform="translate(-269.42 -403.06)" fill="#8bc058"/>
    <path id="Path_174" data-name="Path 174" d="M247.225,323.722l-2.857-6.963a.8.8,0,1,0-1.476.605l2.857,6.963a.8.8,0,1,0,1.476-.605Zm0,0" transform="translate(-223.463 -291.036)" fill="#8bc058"/>
  </g>
</svg>
