<svg xmlns="http://www.w3.org/2000/svg" xmlns:xlink="http://www.w3.org/1999/xlink" width="44" height="44" viewBox="0 0 44 44">
  <defs>
    <clipPath id="clip-path">
      <rect id="Rectangle_51" data-name="Rectangle 51" width="44" height="44" fill="#f47e2f"/>
    </clipPath>
  </defs>
  <g id="hindi" clip-path="url(#clip-path)">
    <path id="Path_499" data-name="Path 499" d="M40.393,15.469H28.3c.038-.424.059-.853.059-1.288A14.185,14.185,0,0,0,7.1,1.895.86.86,0,1,0,7.96,3.382a12.463,12.463,0,1,1,6.226,23.261,12.324,12.324,0,0,1-7.815-2.756.86.86,0,0,0-.792-.152L3.3,24.329l.893-1.964a.859.859,0,0,0-.087-.861A12.474,12.474,0,0,1,3.392,7.937.86.86,0,0,0,1.9,7.078,14.191,14.191,0,0,0,2.416,22.1L.981,25.267a.859.859,0,0,0,1,1.188l3.654-.95a14.179,14.179,0,0,0,10.522,2.732v7.525a3.614,3.614,0,0,0,3.609,3.609H31.921l5.435,4.447a.859.859,0,0,0,1.4-.665V39.36h1.633A3.614,3.614,0,0,0,44,35.751V19.078a3.614,3.614,0,0,0-3.609-3.609Zm1.889,20.282a1.893,1.893,0,0,1-1.889,1.89H37.9a.859.859,0,0,0-.859.859v2.827l-4.25-3.472c-.238-.214-.438-.214-.9-.214H19.765a1.893,1.893,0,0,1-1.89-1.89V27.874A14.229,14.229,0,0,0,28.041,17.182H40.393a1.893,1.893,0,0,1,1.89,1.89Z" fill="#f47e2f"/>
    <path id="Path_500" data-name="Path 500" d="M4.762,5.62a.86.86,0,1,0-.607-.252.86.86,0,0,0,.607.252Z" fill="#f47e2f"/>
    <path id="Path_501" data-name="Path 501" d="M25.855,23.76a.857.857,0,1,0,0,1.711H31.3V33.6a.909.909,0,0,0,1.814,0V25.471h5.9a.857.857,0,1,0,0-1.711Z" fill="#f47e2f" fill-rule="evenodd"/>
    <path id="Path_502" data-name="Path 502" d="M32.24,27.463s0,0-.219.6l.22-.6a.646.646,0,0,1,.357.824.611.611,0,0,1-.8.37h0l-.007,0-.03-.011-.123-.044c-.108-.037-.264-.087-.452-.138a5.873,5.873,0,0,0-1.343-.215,1.868,1.868,0,0,0-1.119.25,1.166,1.166,0,0,0-.408,1.055,1.306,1.306,0,0,0,.123.629.538.538,0,0,0,.256.237,2.134,2.134,0,0,0,1.251.024,8.093,8.093,0,0,0,1.509-.492c.21-.09.385-.173.507-.232l.071-.036.048-.062c.081-.1.191-.245.308-.393.221-.28.5-.631.632-.766a3.075,3.075,0,0,1,2.338-.824A2.662,2.662,0,0,1,37,28.342a2.762,2.762,0,0,1,.774,2.06,3.238,3.238,0,0,1-.886,2.166,4.315,4.315,0,0,1-.579.534c-.079.06-.147.107-.2.14l-.06.039-.019.012-.006,0h0s0,0-.306-.554l.306.555a.606.606,0,0,1-.842-.238.651.651,0,0,1,.227-.87m0,0,.005,0,.031-.02c.029-.02.075-.051.13-.093a3.07,3.07,0,0,0,.41-.378,1.945,1.945,0,0,0,.554-1.294,1.477,1.477,0,0,0-.383-1.127,1.457,1.457,0,0,0-.9-.366,1.889,1.889,0,0,0-1.363.454c-.075.078-.308.366-.55.671-.115.145-.223.283-.3.386l-.1.122-.035.045-.482-.4.285.567h0l0,0-.013.007-.044.023-.161.081c-.137.068-.332.159-.565.259a9.278,9.278,0,0,1-1.743.565,3.257,3.257,0,0,1-2-.116,1.788,1.788,0,0,1-.816-.768,2.593,2.593,0,0,1-.284-1.26,2.439,2.439,0,0,1,.941-2.106,3.033,3.033,0,0,1,1.849-.476,7.057,7.057,0,0,1,1.626.257c.217.059.4.117.526.161l.151.054.042.016.012,0,0,0h0m.192,2.726.285.567a.625.625,0,0,0,.2-.168Zm2.982,2h0" fill="#f47e2f" fill-rule="evenodd"/>
    <path id="Path_503" data-name="Path 503" d="M6,9.533a.852.852,0,0,1,.882-.819H22.318a.821.821,0,1,1,0,1.638H6.882A.852.852,0,0,1,6,9.533Z" fill="#f47e2f" fill-rule="evenodd"/>
    <path id="Path_504" data-name="Path 504" d="M18.286,8.714a.859.859,0,0,1,.819.893v10.5a.822.822,0,1,1-1.638,0V9.608A.859.859,0,0,1,18.286,8.714Z" fill="#f47e2f" fill-rule="evenodd"/>
    <path id="Path_505" data-name="Path 505" d="M11.011,9.533a.663.663,0,0,1,.674.652c0,.22.02.491.044.821.015.208.032.438.047.694a10.686,10.686,0,0,1-.04,2.02,3.324,3.324,0,0,1-.8,1.891,2.223,2.223,0,0,1-1.246.646c.078.138.164.277.258.417a4.808,4.808,0,0,0,4.213,2.2A3.878,3.878,0,0,0,17.22,17.8a2.5,2.5,0,0,0,.455-.711,1.9,1.9,0,0,0,.077-.221l.009-.033a5.8,5.8,0,0,1-1.8.307,3.2,3.2,0,0,1-2.069-.646,2.449,2.449,0,0,1-.854-1.962,2.647,2.647,0,0,1,3.586-2.357.647.647,0,0,1,.427.825.68.68,0,0,1-.853.412,1.305,1.305,0,0,0-1.81,1.12,1.175,1.175,0,0,0,.383.972,1.844,1.844,0,0,0,1.191.332,4.51,4.51,0,0,0,1.506-.284,5.06,5.06,0,0,0,.469-.2c.054-.026.1-.047.121-.061l.027-.015,0,0h0a.688.688,0,0,1,.924.224.639.639,0,0,1-.205.879.643.643,0,0,1,.292.65l-.665-.107.665.108h0v.007l0,.013c0,.01,0,.022-.008.037s-.016.068-.029.115a3.182,3.182,0,0,1-.129.37,3.792,3.792,0,0,1-.691,1.082,5.226,5.226,0,0,1-4.077,1.526,6.164,6.164,0,0,1-5.343-2.795,8.078,8.078,0,0,1-.925-1.868c-.088-.254-.147-.467-.185-.619-.019-.076-.033-.137-.042-.181l-.011-.052,0-.016v-.007h0l.664-.112-.665.112a.654.654,0,0,1,.549-.754.673.673,0,0,1,.78.529h0v.006l.007.032c.006.03.017.076.032.137.025.1.063.238.117.4a1.012,1.012,0,0,0,.816-.275,2.093,2.093,0,0,0,.449-1.172,9.477,9.477,0,0,0,.03-1.776c-.011-.2-.026-.4-.04-.6-.027-.371-.052-.725-.052-.986A.663.663,0,0,1,11.011,9.533ZM8.977,14.419h0Zm9.77,1.927h0l-.317-.511Zm-.662-1.071Z" fill="#f47e2f" fill-rule="evenodd"/>
  </g>
</svg>
