<svg xmlns="http://www.w3.org/2000/svg" width="49.064" height="49.064" viewBox="0 0 49.064 49.064">
  <g id="help" transform="translate(-0.001)">
    <g id="Group_126" data-name="Group 126" transform="translate(7.344 45.115)">
      <g id="Group_125" data-name="Group 125">
        <path id="Path_216" data-name="Path 216" d="M79.806,473.227,78.364,471.2A.958.958,0,1,0,76.8,472.3l1.443,2.032a.958.958,0,1,0,1.563-1.109Z" transform="translate(-76.624 -470.791)" fill="#0088d0"/>
      </g>
    </g>
    <g id="Group_128" data-name="Group 128" transform="translate(0.001 14.992)">
      <g id="Group_127" data-name="Group 127" transform="translate(0)">
        <path id="Path_217" data-name="Path 217" d="M21.582,189.368l-1.57-7.483a14.113,14.113,0,0,0-5.968-8.86l-3.352-2.254a3.372,3.372,0,0,0-4.274.436V159.66a3.208,3.208,0,0,0-5.216-2.5,3.193,3.193,0,0,0-1.2,2.5v14.858a9.282,9.282,0,0,0,1.723,5.4l1.709,2.407A.958.958,0,0,0,5,181.218l-1.709-2.407a7.376,7.376,0,0,1-1.369-4.293V159.66a1.291,1.291,0,1,1,2.583,0v11.788a6.7,6.7,0,0,0,1.727,4.5c.048.057.1.114.149.169.636.674,1.385,1.469,2.089,2.218l.987,1.05.01.009,1.479,1.574a.958.958,0,1,0,1.4-1.312c-.017-.019-1.139-1.213-2.42-2.575l-2.2-2.338-.016-.018a1.617,1.617,0,0,1,.031-2.119,1.449,1.449,0,0,1,1.886-.241l3.352,2.254a12.205,12.205,0,0,1,5.162,7.663l1.57,7.483a.958.958,0,1,0,1.876-.394Z" transform="translate(-0.001 -156.451)" fill="#0088d0"/>
      </g>
    </g>
    <g id="Group_130" data-name="Group 130" transform="translate(5.356 42.315)">
      <g id="Group_129" data-name="Group 129">
        <path id="Path_218" data-name="Path 218" d="M57.629,441.986l-.006-.009a.958.958,0,0,0-1.56,1.113l.006.009a.958.958,0,0,0,1.56-1.113Z" transform="translate(-55.884 -441.575)" fill="#0088d0"/>
      </g>
    </g>
    <g id="Group_132" data-name="Group 132" transform="translate(27.463 14.993)">
      <g id="Group_131" data-name="Group 131">
        <path id="Path_219" data-name="Path 219" d="M306.981,157.16a3.208,3.208,0,0,0-5.216,2.5v11.547a3.372,3.372,0,0,0-4.274-.436l-3.352,2.254a14.112,14.112,0,0,0-5.968,8.86l-1.57,7.483a.958.958,0,1,0,1.876.393l1.57-7.483a12.206,12.206,0,0,1,5.162-7.663l3.352-2.254a1.449,1.449,0,0,1,1.886.241,1.617,1.617,0,0,1,.033,2.117l-.018.02-4.618,4.913a.958.958,0,1,0,1.4,1.312c.013-.014,3.929-4.177,4.565-4.852.052-.055.1-.112.149-.169a6.7,6.7,0,0,0,1.727-4.5V159.662a1.291,1.291,0,1,1,2.583,0v14.858a7.376,7.376,0,0,1-1.369,4.293l-7.24,10.2a.958.958,0,1,0,1.563,1.109l7.24-10.2a9.282,9.282,0,0,0,1.723-5.4V159.662A3.194,3.194,0,0,0,306.981,157.16Z" transform="translate(-286.58 -156.454)" fill="#0088d0"/>
      </g>
    </g>
    <g id="Group_134" data-name="Group 134" transform="translate(8.95 5.175)">
      <g id="Group_133" data-name="Group 133">
        <path id="Path_220" data-name="Path 220" d="M121.11,67.192l-1.7-.407v-.306a4.286,4.286,0,0,0,1.835-3.514V60.748a4.286,4.286,0,0,0-7.072-3.26,5.6,5.6,0,0,0-10.37.008,4.285,4.285,0,0,0-7.081,3.252v2.216a4.286,4.286,0,0,0,1.835,3.514v.306l-1.7.407a4.489,4.489,0,0,0-3.457,4.381v1.79a.958.958,0,0,0,.958.958h4.4c-.007.116-.011.233-.011.351v3.446a.958.958,0,0,0,.958.958h5.76a.958.958,0,0,0,0-1.917h-.99v-1.98a.958.958,0,0,0-1.917,0v1.98h-1.9V74.671a3.968,3.968,0,0,1,3.053-3.871l2.63-.63,1.76,4a.958.958,0,0,0,.877.573h0a.958.958,0,0,0,.877-.573l1.758-4,2.621.626a3.967,3.967,0,0,1,3.055,3.871v2.485h-1.9v-1.98a.958.958,0,1,0-1.917,0v1.98H112.39a.958.958,0,1,0,0,1.917h5.856a.958.958,0,0,0,.958-.958V74.674c0-.119,0-.236-.012-.354h4.416a.958.958,0,0,0,.958-.958v-1.79A4.489,4.489,0,0,0,121.11,67.192Zm-4.159-8.816a2.375,2.375,0,0,1,2.367,2.216h-1.332a6.985,6.985,0,0,1-3.213-.783A2.375,2.375,0,0,1,116.951,58.376Zm-2.372,4.449c0-.047,0-.093,0-.14v-.853a8.9,8.9,0,0,0,3.4.677h1.337v.456a2.372,2.372,0,1,1-4.745,0ZM105.3,59.6h0a3.681,3.681,0,0,1,7.315-.585l-1.613-.948a.958.958,0,0,0-1.22.211,4.129,4.129,0,0,1-3.172,1.48H105.3Zm-4.3-1.222a2.376,2.376,0,0,1,2.178,1.433,6.985,6.985,0,0,1-3.213.783H98.639A2.375,2.375,0,0,1,101.007,58.376Zm-2.372,4.132h1.337a8.9,8.9,0,0,0,3.407-.679v1.135a2.372,2.372,0,0,1-4.745,0Zm4.629,6.429A5.877,5.877,0,0,0,99.191,72.4H95.307v-.831a2.579,2.579,0,0,1,1.986-2.516l2.441-.583a.958.958,0,0,0,.736-.932v-.322a4.16,4.16,0,0,0,1.071,0v.273c0,.014,0,.029,0,.043a.96.96,0,0,0,.779.943l1.429.342Zm2.673-1.488a4.5,4.5,0,0,0-.767-.259l-1.712-.41v-.3a4.324,4.324,0,0,0,.831-.759,5.641,5.641,0,0,0,1.649,1.652Zm4.162,1.408-1.121,2.55-1.124-2.557v-.684a5.616,5.616,0,0,0,2.245,0Zm-1.113-2.492a3.685,3.685,0,0,1-3.681-3.681V61.672h1.31a6.038,6.038,0,0,0,4.072-1.573l1.976,1.161v1.564A3.685,3.685,0,0,1,108.985,66.365Zm3.03,1.087v-.065a5.64,5.64,0,0,0,1.662-1.656,4.323,4.323,0,0,0,.824.751v.3l-1.712.41A4.512,4.512,0,0,0,112.015,67.452ZM122.651,72.4h-3.9a5.876,5.876,0,0,0-4.075-3.465l-.481-.115,1.437-.344a.959.959,0,0,0,.783-.944c0-.007,0-.015,0-.023v-.294a4.16,4.16,0,0,0,1.071,0v.322a.958.958,0,0,0,.736.932l2.441.583a2.579,2.579,0,0,1,1.986,2.516V72.4Z" transform="translate(-93.39 -54)" fill="#0088d0"/>
      </g>
    </g>
    <g id="Group_136" data-name="Group 136" transform="translate(23.575 28.334)">
      <g id="Group_135" data-name="Group 135">
        <path id="Path_221" data-name="Path 221" d="M247.636,295.95a.959.959,0,1,0,.281.678A.966.966,0,0,0,247.636,295.95Z" transform="translate(-246 -295.67)" fill="#0088d0"/>
      </g>
    </g>
    <g id="Group_138" data-name="Group 138" transform="translate(23.574)">
      <g id="Group_137" data-name="Group 137">
        <path id="Path_222" data-name="Path 222" d="M246.951,0a.958.958,0,0,0-.958.958V2.392a.958.958,0,1,0,1.917,0V.958A.958.958,0,0,0,246.951,0Z" transform="translate(-245.993)" fill="#0088d0"/>
      </g>
    </g>
    <g id="Group_140" data-name="Group 140" transform="translate(18.362 1.841)">
      <g id="Group_139" data-name="Group 139">
        <path id="Path_223" data-name="Path 223" d="M194.24,20.5l-1.005-1a.958.958,0,1,0-1.355,1.356l1.005,1A.958.958,0,1,0,194.24,20.5Z" transform="translate(-191.599 -19.213)" fill="#0088d0"/>
      </g>
    </g>
    <g id="Group_142" data-name="Group 142" transform="translate(27.767 1.866)">
      <g id="Group_141" data-name="Group 141">
        <path id="Path_224" data-name="Path 224" d="M292.379,19.75a.958.958,0,0,0-1.355,0l-1,1a.958.958,0,1,0,1.356,1.355l1-1A.958.958,0,0,0,292.379,19.75Z" transform="translate(-289.746 -19.469)" fill="#0088d0"/>
      </g>
    </g>
  </g>
</svg>
