<svg xmlns="http://www.w3.org/2000/svg" width="33.722" height="33.726" viewBox="0 0 33.722 33.726">
  <g id="world" transform="translate(-0.006 -0.006)">
    <g id="Group_117" data-name="Group 117" transform="translate(24.285 30.241)">
      <g id="Group_116" data-name="Group 116">
        <path id="Path_209" data-name="Path 209" d="M369.884,459.364a.659.659,0,0,0-.9-.239l-.025.015a.659.659,0,1,0,.661,1.139l.025-.015A.659.659,0,0,0,369.884,459.364Z" transform="translate(-368.63 -459.036)" fill="#0d68b2"/>
      </g>
    </g>
    <g id="Group_119" data-name="Group 119" transform="translate(0 0.001)">
      <g id="Group_118" data-name="Group 118">
        <path id="Path_210" data-name="Path 210" d="M31.469,8.438A16.861,16.861,0,1,0,22.9,32.616a.659.659,0,1,0-.473-1.23A15.443,15.443,0,0,1,7.566,29.344l.59-3.081.284-.092a2.052,2.052,0,0,0,1.316-2.582l-.209-.642a.727.727,0,0,1,0-.454,2.05,2.05,0,0,0-1.554-2.65l-1.487-.291L3.638,17.37a.659.659,0,0,0-.6-.1l-1.68.546a15.53,15.53,0,0,1,0-1.8c.066.062.109.1.136.131a.691.691,0,0,0,.644.33,9.568,9.568,0,0,0,1.181-.134c.556-.082,1.109-.175,1.114-.176a.659.659,0,0,0,.435-1.021L4.06,13.961l1.157-.827a.659.659,0,0,0,.188-.208L7.2,9.794l.723-.775a2.783,2.783,0,0,0,.537-2.951,3.03,3.03,0,0,0-1.2-1.413A15.523,15.523,0,0,1,16.688,1.33L15.511,2.806,11.149,4.335a.658.658,0,0,0-.391.37L9.54,7.659a.659.659,0,0,0,.073.634l1.779,2.492a6.261,6.261,0,0,0-.8.992c-.13.184-.253.359-.337.456s-.147.168-.221.25a6.165,6.165,0,0,0-1.059,1.471A3.925,3.925,0,0,0,9.3,17.922a3.7,3.7,0,0,0,3.491,1.5,5.129,5.129,0,0,0,.643-.13c.565-.14.744-.154.925.016.088.083.1.1.094.378a2.561,2.561,0,0,0,.059.653,2.081,2.081,0,0,0,.557.909,1.476,1.476,0,0,1,.239.3,1.64,1.64,0,0,1-.08,1.363l-.051.157a3.7,3.7,0,0,0,.484,2.643,6.908,6.908,0,0,1,.3.728c.6,1.761,1.039,2.161,1.4,2.324a1.373,1.373,0,0,0,.575.122,3.684,3.684,0,0,0,2.4-1.441,2.025,2.025,0,0,0,.408-.959,1.05,1.05,0,0,1,.084-.294,1.726,1.726,0,0,1,.216-.278,2.285,2.285,0,0,0,.539-.9,1.45,1.45,0,0,1,.447-.7l.145-.156a2.112,2.112,0,0,0,.412-2.456c-.2-.65.151-1.065,1-1.858A7.115,7.115,0,0,0,24.63,18.72a1.422,1.422,0,0,0,.279-1.319c-.238-.553-.844-.646-1.33-.72A2.183,2.183,0,0,1,23,16.546a3.114,3.114,0,0,1-.9-1.36c-.048-.107-.1-.213-.143-.315-.086-.183-.171-.4-.262-.639a5.526,5.526,0,0,0-.974-1.814,4.207,4.207,0,0,0-1.89-.84c-.232-.063-.452-.122-.6-.176a.658.658,0,0,0-.378-.023,1.709,1.709,0,0,0-.7.291.818.818,0,0,0-.235.316,7.534,7.534,0,0,1-.777-.473l-.013-.008a.934.934,0,0,0-.059-.634c-.368-.778-1.59-.717-1.831-.7-.137.011-.31.018-.493.024-.288.01-.606.022-.92.057l.016-.045A1.684,1.684,0,0,1,14.43,9.1h.37a.659.659,0,0,0,0-1.317h-.37A3.007,3.007,0,0,0,11.88,9.2L10.9,7.824l.967-2.343,4.262-1.494a.659.659,0,0,0,.3-.211L18.318,1.4a15.535,15.535,0,0,1,12.01,7.7,15.373,15.373,0,0,1,1.552,3.771l-.279.249a1.759,1.759,0,0,0-.586,1.28c0,.005,0,.011,0,.016l-.455-1.251a1.645,1.645,0,0,0-.3-.509l-.812-.95a1.651,1.651,0,0,0-1.257-.579H27.2a.954.954,0,0,0-.794,1.483l.1.151a7.3,7.3,0,0,1-2.175,1.292L22.972,11.44v-.582a.658.658,0,0,0-.2-.476l-1.23-1.171a.66.66,0,0,0-.236-.145l-1.1-.388a.659.659,0,1,0-.437,1.243l.97.341.92.878v.46a.659.659,0,0,0,.075.3l1.7,3.265a.658.658,0,0,0,.812.313l.5-.183a8.621,8.621,0,0,0,3.091-1.978.659.659,0,0,0,.082-.831l-.035-.053H28.2a.335.335,0,0,1,.255.118l.812.95a.335.335,0,0,1,.06.1l.9,2.463a.659.659,0,0,0,1.085.241l.426-.426a2.056,2.056,0,0,0,.545-.99A15.6,15.6,0,0,1,26.49,29.075a.659.659,0,0,0,.813,1.036A16.863,16.863,0,0,0,31.469,8.438ZM3.115,18.627l2.716,2.065a.658.658,0,0,0,.272.122l1.637.32a.732.732,0,0,1,.555.946,2.036,2.036,0,0,0,0,1.272L8.5,24a.733.733,0,0,1-.47.922l-.655.213a.659.659,0,0,0-.443.5l-.527,2.75a15.717,15.717,0,0,1-3-3.743,15.461,15.461,0,0,1-1.914-5.486ZM6.954,8.121l-.775.83a.662.662,0,0,0-.09.122L4.33,12.145,2.766,13.264a.659.659,0,0,0-.161.907l.585.858c-.337.05-.64.092-.841.114l-.121-.114c-.157-.145-.374-.34-.7-.624a15.57,15.57,0,0,1,4.64-8.812,1.713,1.713,0,0,1,1.067.977,1.462,1.462,0,0,1-.281,1.551Zm5.371,3.6a4.224,4.224,0,0,1,1.474-.207c.2-.007.388-.014.556-.028a1.792,1.792,0,0,1,.281,0,.659.659,0,0,0,.3.82c.124.066.3.181.478.3a3.8,3.8,0,0,0,1.647.767,1.093,1.093,0,0,0,.9-.373l.028-.028a.706.706,0,0,0,.176-.216l.329.091a4.386,4.386,0,0,1,1.276.472,4.676,4.676,0,0,1,.7,1.384c.1.256.193.5.3.723l.134.3A4.114,4.114,0,0,0,22.28,17.65a2.723,2.723,0,0,0,1.1.334l.143.023a6.37,6.37,0,0,1-.836.877c-.815.759-1.83,1.7-1.363,3.212.221.712.231.789-.124,1.175l-.136.146a2.707,2.707,0,0,0-.742,1.2,1.028,1.028,0,0,1-.268.419,2.941,2.941,0,0,0-.369.488,2.135,2.135,0,0,0-.238.7.806.806,0,0,1-.138.386,3.84,3.84,0,0,1-.832.735,1.087,1.087,0,0,1-.552.22,4.7,4.7,0,0,1-.71-1.547,9.087,9.087,0,0,0-.354-.852,2.824,2.824,0,0,1-.43-1.694l.049-.151a2.878,2.878,0,0,0,.044-2.281,2.376,2.376,0,0,0-.48-.683,1.225,1.225,0,0,1-.252-.334,1.424,1.424,0,0,1-.022-.333,1.634,1.634,0,0,0-.511-1.349,2.122,2.122,0,0,0-2.142-.333,4.132,4.132,0,0,1-.481.1,2.367,2.367,0,0,1-2.267-.959,2.608,2.608,0,0,1-.2-2.637,5,5,0,0,1,.853-1.158c.076-.086.154-.173.231-.262.128-.148.27-.349.419-.561a4.762,4.762,0,0,1,.653-.811Z" transform="translate(0 -0.001)" fill="#0d68b2"/>
      </g>
    </g>
    <g id="Group_121" data-name="Group 121" transform="translate(23.067 20.997)">
      <g id="Group_120" data-name="Group 120">
        <path id="Path_211" data-name="Path 211" d="M354.094,320.4l-.317-1.2a.659.659,0,0,0-1.216-.145c-.072.133-.137.274-.2.41a2.83,2.83,0,0,1-.329.6,1.454,1.454,0,0,1-.387.229,1.811,1.811,0,0,0-1.1,1.066,1.93,1.93,0,0,0-.044.929.6.6,0,0,1-.017.388l-.007.015a2.217,2.217,0,0,0-.053,2.187,1.372,1.372,0,0,0,1.12.7,1.066,1.066,0,0,0,.176-.014c.672-.11,1.177-.809,1.59-2.2l.775-2.611a.659.659,0,0,0,.009-.359Zm-2.043,2.593a4,4,0,0,1-.5,1.187c-.012-.016-.026-.034-.04-.054-.126-.179.062-.621.187-.913l.007-.015a1.854,1.854,0,0,0,.108-1.1.691.691,0,0,1,0-.342c.026-.082.18-.162.413-.274.1-.05.217-.1.331-.171Z" transform="translate(-350.15 -318.712)" fill="#0d68b2"/>
      </g>
    </g>
    <g id="Group_123" data-name="Group 123" transform="translate(16.868 7.778)">
      <g id="Group_122" data-name="Group 122">
        <path id="Path_212" data-name="Path 212" d="M256.965,118.112l-.044-.016a.659.659,0,0,0-.436,1.243l.044.016a.659.659,0,1,0,.436-1.243Z" transform="translate(-256.044 -118.059)" fill="#0d68b2"/>
      </g>
    </g>
  </g>
</svg>
