<svg xmlns="http://www.w3.org/2000/svg" width="50.333" height="50.333" viewBox="0 0 50.333 50.333">
  <g id="_001---Thinking" data-name="001---Thinking" transform="translate(0 0)">
    <path id="Shape" d="M44.855,32.365a6.155,6.155,0,0,1-.871.5c-.363.185-.971.5-1.013.714a1.449,1.449,0,0,0,.1.849c.125.268.257.5.369.7.308.542.821,1.45.046,2.085-.181.168-.494.41-.78.629a2.114,2.114,0,0,1,.273,1.21,1.21,1.21,0,0,1-.492.822c-.189.134-.391.252-.587.365-.493.281-.686.412-.755.671a2.316,2.316,0,0,0,.092,1.016c.049.218.1.435.128.659a4.931,4.931,0,0,1-.284,2.26,3.143,3.143,0,0,1-2.972,2.29,3.413,3.413,0,0,1-.685-.072,63.6,63.6,0,0,1-7.072-2.116c-1.889,1.109-3.084,4.481-3.395,5.747a.839.839,0,0,1-.815.636L5.086,51.272a.839.839,0,0,1-.8-1.091,6.48,6.48,0,0,1,.85-1.594,7.785,7.785,0,0,0,.544-.906,15.971,15.971,0,0,0,.947-2.388,28.27,28.27,0,0,0,.992-4.963,14.2,14.2,0,0,0-1.1-7.366,18.751,18.751,0,0,0-2.278-3.6c-.5-.679-1.026-1.383-1.495-2.122a12.974,12.974,0,0,1-1.728-4.085.839.839,0,0,1,1.634-.379,11.325,11.325,0,0,0,1.51,3.565c.435.689.939,1.366,1.426,2.022a20.272,20.272,0,0,1,2.469,3.93,15.869,15.869,0,0,1,1.23,8.238,29.772,29.772,0,0,1-1.058,5.262,17.5,17.5,0,0,1-1.041,2.627,9.171,9.171,0,0,1-.65,1.091L6.48,49.6l19.027.057A13.377,13.377,0,0,1,28.461,44.3l-.755-.263c-.564-.2-.989-.346-1.209-.419-3.592-1.145-5.389-2.781-5.339-4.865a.824.824,0,0,1,.856-.815.839.839,0,0,1,.819.858c-.02.858.687,2.115,4.174,3.225.228.073.671.226,1.251.43.623.217,1.413.494,2.286.79h.006a65.33,65.33,0,0,0,7.209,2.181A1.494,1.494,0,0,0,39.487,44.3a3.355,3.355,0,0,0,.207-1.486c-.024-.168-.064-.344-.1-.515a3.661,3.661,0,0,1-.084-1.806,2.78,2.78,0,0,1,1.549-1.712l.18-.1a3.087,3.087,0,0,0-.324-.52.839.839,0,0,1,.162-1.195c.2-.148.671-.5,1.023-.783-.04-.073-.084-.154-.127-.226-.132-.232-.283-.5-.429-.811a3.131,3.131,0,0,1-.223-1.877c.2-1.023,1.181-1.525,1.9-1.891a4.85,4.85,0,0,0,.691-.4,3.574,3.574,0,0,0,.5-.408c0-.128-.137-.435-.775-1.213A33.845,33.845,0,0,1,39.8,23.119a2.493,2.493,0,0,1-.324-1.134,2.936,2.936,0,0,1,1.231-2.1c.34-.312.661-.606.7-.853a1.648,1.648,0,0,0-.136-.6c-.137-.359-.3-.711-.453-1.065a12.312,12.312,0,0,1-.839-2.274,22.5,22.5,0,0,0-.755-2.775,14.382,14.382,0,0,0-3.01-4.917c-1.6-1.7-4.129-2.9-7.518-3.573A54.511,54.511,0,0,0,20.821,2.7a18.362,18.362,0,0,0-2.672.057.841.841,0,1,1-.156-1.674,20.405,20.405,0,0,1,2.916-.058A55.993,55.993,0,0,1,29.023,2.19c3.782.755,6.531,2.081,8.407,4.064A16.045,16.045,0,0,1,40.8,11.743a24.523,24.523,0,0,1,.826,3.032,10.864,10.864,0,0,0,.72,1.913c.168.382.341.763.492,1.16a2.931,2.931,0,0,1,.228,1.408,3.225,3.225,0,0,1-1.227,1.867c-.411.377-.682.642-.685.873a1.421,1.421,0,0,0,.143.364,32.38,32.38,0,0,0,3.671,5.965,3.491,3.491,0,0,1,1.111,2.468A2.57,2.57,0,0,1,44.855,32.365Z" transform="translate(4.242 -0.999)" fill="#0088d0"/>
    <path id="Shape-2" data-name="Shape" d="M18.966,14.347a11.051,11.051,0,0,0-2.3-3.775c-1.118-1.184-3.052-2.055-5.748-2.591a.839.839,0,0,1,.326-1.646c3.044.606,5.278,1.642,6.64,3.082a12.717,12.717,0,0,1,2.657,4.352,21.333,21.333,0,0,1,.689,2.559l-1.638.363A20.049,20.049,0,0,0,18.966,14.347Z" transform="translate(21.351 -1.856)" fill="#0088d0"/>
    <path id="Shape-3" data-name="Shape" d="M43.767,5.7l.5,2.51a9.987,9.987,0,0,1,1.413.587l2.13-1.426a1.678,1.678,0,0,1,2.107.219l1.392,1.392a1.678,1.678,0,0,1,.221,2.126l-1.419,2.12a9.988,9.988,0,0,1,.587,1.413l2.507.5a1.678,1.678,0,0,1,1.346,1.646v1.98a1.678,1.678,0,0,1-1.342,1.645l-2.51.5a9.988,9.988,0,0,1-.587,1.413l1.426,2.13a1.678,1.678,0,0,1-.219,2.107L49.93,27.957a1.683,1.683,0,0,1-2.126.221l-2.12-1.419a9.988,9.988,0,0,1-1.413.587l-.5,2.506A1.678,1.678,0,0,1,42.122,31.2h-1.98A1.678,1.678,0,0,1,38.5,29.857l-.5-2.51a9.987,9.987,0,0,1-1.413-.587l-2.13,1.426a1.678,1.678,0,0,1-2.107-.219l-1.392-1.392a1.678,1.678,0,0,1-.221-2.126l1.419-2.12a9.988,9.988,0,0,1-.587-1.413l-2.506-.5a1.671,1.671,0,0,1-1.155-.874l-1.264.847a1.532,1.532,0,0,1-.815.236,1.51,1.51,0,0,1-1.071-.445l-1.116-1.116a1.523,1.523,0,0,1-.2-1.908l1.082-1.619a7.885,7.885,0,0,1-.406-.975l-1.9-.378A1.51,1.51,0,0,1,21,12.694V11.117a1.51,1.51,0,0,1,1.212-1.486l1.907-.38a7.764,7.764,0,0,1,.4-.975l-1.1-1.638a1.516,1.516,0,0,1,.21-1.886L24.75,3.637a1.523,1.523,0,0,1,1.908-.2l1.619,1.082a7.885,7.885,0,0,1,.975-.406l.379-1.9A1.51,1.51,0,0,1,31.117,1h1.577a1.51,1.51,0,0,1,1.486,1.212l.38,1.907a7.765,7.765,0,0,1,.975.407l1.638-1.1a1.517,1.517,0,0,1,1.886.21l.755.755a1.719,1.719,0,0,1,.33-.036h1.98A1.678,1.678,0,0,1,43.767,5.7ZM30.943,8.986l.392-.392a3.338,3.338,0,0,0-1.043,6.3l1.273-.252a9.987,9.987,0,0,1,.587-1.413L30.727,11.1a1.678,1.678,0,0,1,.216-2.109Zm7.021-4.073L36.047,6.2a.839.839,0,0,1-.9.024,6.136,6.136,0,0,0-1.535-.642.839.839,0,0,1-.6-.646l-.45-2.26H31.249L30.8,4.943a.839.839,0,0,1-.6.646,6.136,6.136,0,0,0-1.535.642.839.839,0,0,1-.9-.029L25.846,4.914l-.931.931L26.2,7.764a.839.839,0,0,1,.024.9,6.136,6.136,0,0,0-.642,1.535.839.839,0,0,1-.646.6l-2.265.45v1.312l2.261.45a.839.839,0,0,1,.646.6,6.136,6.136,0,0,0,.642,1.535.839.839,0,0,1-.024.9L24.91,17.964l.931.931,1.87-1.251v-.857A1.683,1.683,0,0,1,28.3,15.51a5.021,5.021,0,0,1,3.5-8.638,4.854,4.854,0,0,1,1.492.245,1.7,1.7,0,0,1,1.174.258l2.118,1.419a9.987,9.987,0,0,1,1.413-.587L38.5,5.7a1.538,1.538,0,0,1,.058-.2Zm4.762,4.121-.6-3h-1.98l-.6,3a.839.839,0,0,1-.6.644,8.264,8.264,0,0,0-1.981.822.839.839,0,0,1-.888-.029l-2.538-1.7-1.406,1.4,1.7,2.541a.839.839,0,0,1,.029.888,8.263,8.263,0,0,0-.822,1.981.839.839,0,0,1-.644.6l-3,.6v1.981l3,.6a.839.839,0,0,1,.644.6,8.264,8.264,0,0,0,.822,1.981.839.839,0,0,1-.029.888l-1.7,2.538,1.4,1.406,2.541-1.7a.839.839,0,0,1,.888-.029,8.264,8.264,0,0,0,1.981.822.839.839,0,0,1,.6.644l.6,3h1.98l.6-3a.839.839,0,0,1,.6-.644,8.264,8.264,0,0,0,1.981-.822.839.839,0,0,1,.888.029l2.538,1.7,1.406-1.4-1.7-2.541a.839.839,0,0,1-.029-.888,8.264,8.264,0,0,0,.822-1.981.839.839,0,0,1,.644-.6l3-.6v-1.98l-3-.6a.839.839,0,0,1-.644-.6,8.264,8.264,0,0,0-.822-1.981.839.839,0,0,1,.029-.888l1.7-2.538-1.4-1.406-2.541,1.7a.839.839,0,0,1-.888.029,8.264,8.264,0,0,0-1.981-.822A.839.839,0,0,1,42.726,9.034Z" transform="translate(-21 -0.999)" fill="#0088d0"/>
    <path id="Shape-4" data-name="Shape" d="M35.872,25.744a5.872,5.872,0,1,1,5.872-5.872A5.872,5.872,0,0,1,35.872,25.744Zm0-10.066a4.194,4.194,0,1,0,4.194,4.194A4.194,4.194,0,0,0,35.872,15.678Z" transform="translate(-15.739 -3.094)" fill="#0088d0"/>
    <circle id="Oval" cx="1" cy="1" r="1" transform="translate(19.331 16)" fill="#0088d0"/>
    <circle id="Oval-2" data-name="Oval" cx="0.5" cy="0.5" r="0.5" transform="translate(42.331 17)" fill="#0088d0"/>
  </g>
</svg>
