<svg id="Group_63" data-name="Group 63" xmlns="http://www.w3.org/2000/svg" width="36.019" height="38" viewBox="0 0 36.019 38">
  <path id="Path_170" data-name="Path 170" d="M33.5,17.7c2.443-3.234,3.136-6.145,1.952-8.2a4.018,4.018,0,0,0-.254-.383,3.515,3.515,0,1,0-6.346-2.146,20.805,20.805,0,0,0-3.13.406C24.195,2.864,21.774,0,19,0c-2.825,0-5.285,2.971-6.81,7.631-3.118-.648-5.828-.595-7.727.243a3.515,3.515,0,0,0-2.195,6.671.7.7,0,0,0,.027.094,16.711,16.711,0,0,0,3.033,4.635c-.293.343-.572.687-.832,1.031-2.443,3.234-3.136,6.145-1.952,8.2A4.185,4.185,0,0,0,3.57,29.68a3.516,3.516,0,0,0,6.921,1.24q.873-.1,1.788-.283C13.81,35.142,16.229,38,19,38c2.713,0,5.09-2.742,6.624-7.087a19.238,19.238,0,0,0,3.576.372c2.846,0,5-.83,5.989-2.54,1.382-2.394.125-5.907-2.995-9.477C32.667,18.746,33.106,18.221,33.5,17.7ZM32.37,4.926a2.108,2.108,0,0,1,1.587,3.5.666.666,0,0,0-.348.318A2.11,2.11,0,1,1,32.37,4.926ZM29.117,8.372a3.507,3.507,0,0,0,5.033,1.7c.03.045.059.09.086.137.871,1.508.194,3.929-1.856,6.644-.348.461-.733.922-1.143,1.382a34.17,34.17,0,0,0-4-3.48,35.028,35.028,0,0,0-1.1-6.03A18.411,18.411,0,0,1,29.117,8.372Zm-1.734,8.282a32.414,32.414,0,0,1,2.88,2.606,32.394,32.394,0,0,1-2.908,2.573q.088-1.384.09-2.833Q27.444,17.806,27.383,16.653Zm-1.694-3.01q-1.3-.883-2.732-1.712-1.324-.764-2.645-1.41a33,33,0,0,1,4.444-1.493A33.306,33.306,0,0,1,25.689,13.643ZM19,1.407c2.111,0,4.04,2.468,5.343,6.288A36.055,36.055,0,0,0,18.6,9.73,34.88,34.88,0,0,0,13.57,7.957C14.872,3.988,16.841,1.407,19,1.407ZM13.16,9.332a32.981,32.981,0,0,1,3.717,1.221q-1.055.533-2.1,1.134-1.24.716-2.4,1.491A33.217,33.217,0,0,1,13.16,9.332ZM1.407,11.259A2.111,2.111,0,0,1,3.938,9.19a.7.7,0,0,0,.536.189,2.11,2.11,0,1,1-3.066,1.88Zm2.484,3.5A3.513,3.513,0,0,0,6.056,8.829a14.009,14.009,0,0,1,5.723.181,34.938,34.938,0,0,0-.971,5.266,34.335,34.335,0,0,0-4.536,3.952A16.327,16.327,0,0,1,3.891,14.758Zm6.787,7.552a32.7,32.7,0,0,1-3.449-3.046,31.444,31.444,0,0,1,3.416-3.1q-.088,1.384-.09,2.833C10.556,20.132,10.6,21.237,10.678,22.31ZM7.037,32.37a2.111,2.111,0,1,1,2.111-2.111A2.113,2.113,0,0,1,7.037,32.37ZM10.472,29.5a3.516,3.516,0,0,0-6.343-1.223,2.67,2.67,0,0,1-.365-.485c-.871-1.508-.194-3.93,1.856-6.644.212-.281.44-.562.676-.843A35.632,35.632,0,0,0,10.863,24.2a34.124,34.124,0,0,0,1,5.082Q11.149,29.419,10.472,29.5Zm1.974-4.218q1,.657,2.067,1.272c.782.451,1.562.867,2.337,1.255a32,32,0,0,1-3.607,1.156A32.4,32.4,0,0,1,12.446,25.286ZM19,36.593c-2.108,0-4.035-2.461-5.337-6.272a34.141,34.141,0,0,0,4.92-1.686,34.523,34.523,0,0,0,5.653,1.976C22.936,34.256,21.054,36.593,19,36.593Zm5.674-7.333a32.7,32.7,0,0,1-4.338-1.42c.962-.464,1.927-.972,2.886-1.526q1.24-.716,2.4-1.491A32.439,32.439,0,0,1,24.673,29.259Zm1.176-6.3c-1.05.746-2.163,1.463-3.331,2.137A41.427,41.427,0,0,1,18.6,27.089c-1.121-.516-2.254-1.1-3.381-1.75-1.052-.608-2.062-1.25-3.018-1.916A41.281,41.281,0,0,1,11.963,19c0-1.355.065-2.681.188-3.958,1.05-.746,2.163-1.463,3.331-2.137,1.031-.6,2.076-1.137,3.118-1.627a40.935,40.935,0,0,1,3.654,1.872,41.329,41.329,0,0,1,3.638,2.361c.1,1.131.146,2.3.146,3.489C26.037,20.355,25.972,21.681,25.849,22.958Zm8.122,5.084c-1.037,1.8-4.051,2.247-7.912,1.521a34.228,34.228,0,0,0,1.132-5.838,35.191,35.191,0,0,0,4.026-3.43C33.86,23.323,35.024,26.218,33.971,28.041Z" fill="#00a773"/>
  <path id="Path_171" data-name="Path 171" d="M19.7,14.778A3.518,3.518,0,1,0,23.222,18.3,3.523,3.523,0,0,0,19.7,14.778Zm0,5.63A2.111,2.111,0,1,1,21.815,18.3,2.113,2.113,0,0,1,19.7,20.407Z" fill="#00a773"/>
</svg>
