<svg xmlns="http://www.w3.org/2000/svg" width="37.927" height="38.001" viewBox="0 0 37.927 38.001">
  <g id="math" transform="translate(0 0.001)">
    <path id="Path_156" data-name="Path 156" d="M26.344,17.4a.741.741,0,1,0-1.048,0,.741.741,0,0,0,1.048,0Z" fill="#0db7b3"/>
    <path id="Path_157" data-name="Path 157" d="M.741,38H37.185a.742.742,0,0,0,.524-1.267L1.264.217A.74.74,0,0,0,0,.742V37.258A.741.741,0,0,0,.741,38Zm.74-35.466L7.44,8.5,5.868,10.078a.741.741,0,1,0,1.047,1.05L8.487,9.553,11.63,12.7l-1.571,1.574a.742.742,0,1,0,1.047,1.05l1.572-1.574L15.82,16.9l-1.571,1.575a.743.743,0,0,0,1.051,1.05l1.572-1.575L20.01,21.1l-1.571,1.575a.741.741,0,0,0,1.047,1.049l1.572-1.574L24.2,25.3l-1.57,1.573a.742.742,0,1,0,1.048,1.049l1.571-1.574L28.391,29.5,26.82,31.071a.742.742,0,0,0,1.048,1.05l1.571-1.575,5.958,5.97H1.481Z" fill="#0db7b3"/>
    <path id="Path_158" data-name="Path 158" d="M7.635,15.432a.741.741,0,0,0-1.264.525V30.875a.741.741,0,0,0,.741.742H22a.742.742,0,0,0,.524-1.267Zm.217,14.7V17.748l12.36,12.385Z" fill="#0db7b3"/>
    <path id="Path_159" data-name="Path 159" d="M23.2,15.3a.742.742,0,1,0,1.048-1.05L21.106,11.1a.742.742,0,0,0-1.048,1.05Z" fill="#0db7b3"/>
    <path id="Path_160" data-name="Path 160" d="M11.244,7.564,32.037,28.4a2.218,2.218,0,0,0,3.143,0l2.1-2.1a2.234,2.234,0,0,0,0-3.149L16.483,2.316a.739.739,0,0,0-.29-.179L9.907.038A.742.742,0,0,0,8.97.977l2.1,6.3a.742.742,0,0,0,.179.287ZM36.227,24.2a.744.744,0,0,1,0,1.05l-2.1,2.1a.74.74,0,0,1-1.048,0l-1.6-1.61,3.143-3.149Zm-2.652-2.658L30.432,24.69l-1.048-1.05,3.143-3.149ZM16.449,4.382,31.48,19.442l-3.143,3.149L13.306,7.531Zm-1.127-.971L12.337,6.4,10.844,1.916Z" fill="#0db7b3"/>
  </g>
</svg>
