<svg xmlns="http://www.w3.org/2000/svg" width="37.409" height="41.638" viewBox="0 0 37.409 41.638">
  <g id="brain" transform="translate(-26)">
    <g id="Group_65" data-name="Group 65" transform="translate(47.956 6.75)">
      <g id="Group_64" data-name="Group 64">
        <path id="Path_175" data-name="Path 175" d="M296.813,83a.813.813,0,1,0,.813.813A.813.813,0,0,0,296.813,83Z" transform="translate(-296 -83)" fill="#f14436"/>
      </g>
    </g>
    <g id="Group_67" data-name="Group 67" transform="translate(39.824 6.75)">
      <g id="Group_66" data-name="Group 66">
        <path id="Path_176" data-name="Path 176" d="M196.813,83a.813.813,0,1,0,.813.813A.813.813,0,0,0,196.813,83Z" transform="translate(-196 -83)" fill="#f14436"/>
      </g>
    </g>
    <g id="Group_69" data-name="Group 69" transform="translate(26)">
      <g id="Group_68" data-name="Group 68" transform="translate(0)">
        <path id="Path_177" data-name="Path 177" d="M62.359,24.3a6.5,6.5,0,0,0,1.047-3.487,5.648,5.648,0,0,0-2.06-4.369,5.5,5.5,0,0,0,.433-2.136A6.062,6.062,0,0,0,58.5,8.952a4.874,4.874,0,0,0-3.7-5.318A5.858,5.858,0,0,0,49.583,0,5.715,5.715,0,0,0,44.7,2.929,5.715,5.715,0,0,0,39.824,0a5.858,5.858,0,0,0-5.209,3.633,4.873,4.873,0,0,0-3.7,5.318,6.062,6.062,0,0,0-3.284,5.36,5.5,5.5,0,0,0,.433,2.136A5.648,5.648,0,0,0,26,20.817,6.5,6.5,0,0,0,27.047,24.3a5.614,5.614,0,0,0,.652,7.289,5.9,5.9,0,0,0,5.619,6.789h.071A6.411,6.411,0,0,0,44.7,38.1a6.411,6.411,0,0,0,11.313.283h.074a5.9,5.9,0,0,0,5.692-5.937,5.206,5.206,0,0,0-.073-.852,5.614,5.614,0,0,0,.652-7.289ZM43.89,12.31a3.232,3.232,0,0,0-1.627-.438.813.813,0,0,0,0,1.627,1.629,1.629,0,0,1,1.627,1.627V30.59a6.49,6.49,0,0,0-4.879-2.21.813.813,0,1,0,0,1.627,4.885,4.885,0,0,1,4.879,4.879,5.073,5.073,0,0,1-4.879,5.123A4.893,4.893,0,0,1,34.6,37.173a.814.814,0,0,0-.829-.465l-.172.022c-2.315.317-4.92-2.3-4.215-5.236a.813.813,0,0,0-.274-.816,4.048,4.048,0,0,1-1.483-3.111,4,4,0,0,1,.6-2.093,5.487,5.487,0,0,0,3.467,1.277.813.813,0,0,0,0-1.627,4.274,4.274,0,0,1-4.066-4.31,4.043,4.043,0,0,1,1.9-3.426.813.813,0,0,0,.275-1.089,4,4,0,0,1-.547-1.991A4.294,4.294,0,0,1,33.312,10a4.3,4.3,0,0,1,4.066,4.31.813.813,0,1,0,1.627,0,5.9,5.9,0,0,0-5.686-5.933,5.273,5.273,0,0,0-.811.064V8.375a3.253,3.253,0,0,1,5.554-2.3.813.813,0,1,0,1.147-1.149,4.846,4.846,0,0,0-2.7-1.369,4.106,4.106,0,0,1,3.313-1.929,4.3,4.3,0,0,1,4.066,4.31ZM57.714,26.754a5.489,5.489,0,0,0,3.467-1.277,4,4,0,0,1,.6,2.092A4.048,4.048,0,0,1,60.3,30.68a.813.813,0,0,0-.274.816,4.015,4.015,0,0,1,.126.953c0,2.524-2.281,4.562-4.341,4.283l-.172-.022a.813.813,0,0,0-.829.465,4.893,4.893,0,0,1-4.416,2.837,5.073,5.073,0,0,1-4.879-5.123,4.885,4.885,0,0,1,4.879-4.879.813.813,0,0,0,0-1.627,6.491,6.491,0,0,0-4.88,2.21V15.125A1.629,1.629,0,0,1,47.143,13.5a.813.813,0,0,0,0-1.627,3.232,3.232,0,0,0-1.627.438V5.937a4.3,4.3,0,0,1,4.066-4.31A4.106,4.106,0,0,1,52.9,3.558a4.846,4.846,0,0,0-2.7,1.369.813.813,0,0,0,1.15,1.15,3.253,3.253,0,0,1,5.554,2.3v.064a5.273,5.273,0,0,0-.811-.064A5.9,5.9,0,0,0,50.4,14.312a.813.813,0,0,0,1.627,0,4.073,4.073,0,1,1,8.132,0,4,4,0,0,1-.547,1.991.813.813,0,0,0,.274,1.088,4.044,4.044,0,0,1,1.9,3.427,4.273,4.273,0,0,1-4.066,4.31.813.813,0,1,0,0,1.627Z" transform="translate(-26)" fill="#f14436"/>
      </g>
    </g>
    <g id="Group_71" data-name="Group 71" transform="translate(32.504 13.499)">
      <g id="Group_70" data-name="Group 70" transform="translate(0 0)">
        <path id="Path_178" data-name="Path 178" d="M115.551,169.908a.813.813,0,0,0-1.149-.064,4.073,4.073,0,0,1-6.777-3.031.813.813,0,0,0-1.627,0,5.7,5.7,0,0,0,4.765,5.616,2.444,2.444,0,0,1-2.326,1.7.813.813,0,0,0,0,1.627,4.072,4.072,0,0,0,3.992-3.3,5.683,5.683,0,0,0,3.055-1.4.813.813,0,0,0,.066-1.149Z" transform="translate(-105.999 -166)" fill="#f14436"/>
      </g>
    </g>
    <g id="Group_73" data-name="Group 73" transform="translate(32.505 31.633)">
      <g id="Group_72" data-name="Group 72" transform="translate(0)">
        <path id="Path_179" data-name="Path 179" d="M106.813,389a.813.813,0,0,0,0,1.627,4.3,4.3,0,0,1,4.066,4.31.813.813,0,0,0,1.627,0A5.9,5.9,0,0,0,106.813,389Z" transform="translate(-106 -389)" fill="#f14436"/>
      </g>
    </g>
    <g id="Group_75" data-name="Group 75" transform="translate(33.351 25.126)">
      <g id="Group_74" data-name="Group 74" transform="translate(0 0)">
        <path id="Path_180" data-name="Path 180" d="M122.871,309a7.3,7.3,0,0,0-6.367,3.709.813.813,0,1,0,1.415.8,5.68,5.68,0,0,1,4.952-2.885.813.813,0,0,0,0-1.627Z" transform="translate(-116.398 -308.999)" fill="#f14436"/>
      </g>
    </g>
    <g id="Group_77" data-name="Group 77" transform="translate(47.143 13.499)">
      <g id="Group_76" data-name="Group 76" transform="translate(0 0)">
        <path id="Path_181" data-name="Path 181" d="M293.319,174.132a2.444,2.444,0,0,1-2.326-1.7,5.7,5.7,0,0,0,4.765-5.616.813.813,0,0,0-1.627,0,4.065,4.065,0,0,1-6.777,3.031.813.813,0,1,0-1.084,1.213,5.683,5.683,0,0,0,3.055,1.4,4.072,4.072,0,0,0,3.992,3.3.813.813,0,0,0,0-1.627Z" transform="translate(-286 -165.999)" fill="#f14436"/>
      </g>
    </g>
    <g id="Group_79" data-name="Group 79" transform="translate(50.395 31.633)">
      <g id="Group_78" data-name="Group 78" transform="translate(0)">
        <path id="Path_182" data-name="Path 182" d="M331.692,389A5.9,5.9,0,0,0,326,394.937a.813.813,0,1,0,1.627,0,4.3,4.3,0,0,1,4.066-4.31.813.813,0,1,0,0-1.627Z" transform="translate(-326 -389)" fill="#f14436"/>
      </g>
    </g>
    <g id="Group_81" data-name="Group 81" transform="translate(48.769 25.127)">
      <g id="Group_80" data-name="Group 80" transform="translate(0)">
        <path id="Path_183" data-name="Path 183" d="M313.18,312.709A7.3,7.3,0,0,0,306.813,309a.813.813,0,0,0,0,1.627,5.68,5.68,0,0,1,4.952,2.885.813.813,0,0,0,1.415-.8Z" transform="translate(-306 -309)" fill="#f14436"/>
      </g>
    </g>
  </g>
</svg>
