<svg id="english" xmlns="http://www.w3.org/2000/svg" width="37.769" height="38" viewBox="0 0 37.769 38">
  <path id="Path_141" data-name="Path 141" d="M16.548,7.355h-1.1l-1.508-4.9H11.805L10.3,7.355H9.2V8.581h.72l-.7,2.271,1.171.36L11.2,8.58H14.54l.81,2.632,1.171-.36-.7-2.271h.726Zm-4.969,0,1.132-3.677h.32l1.131,3.677Z" fill="#31c4ef"/>
  <path id="Path_142" data-name="Path 142" d="M22.459,6.742a2.451,2.451,0,0,0-1.62-4.29H18.387v8.581h2.452a2.451,2.451,0,0,0,1.62-4.29Zm-1.62,3.065H19.613V7.355h1.226a1.226,1.226,0,0,1,0,2.452Zm0-3.677H19.613V3.677h1.226a1.226,1.226,0,1,1,0,2.452Z" fill="#31c4ef"/>
  <path id="Path_143" data-name="Path 143" d="M28.806,3.677V2.452a4.291,4.291,0,1,0,0,8.581V9.807a3.065,3.065,0,1,1,0-6.13Z" fill="#31c4ef"/>
  <path id="Path_144" data-name="Path 144" d="M7.355,12.258V23.29h23.29V12.258Zm22.064,9.806H8.581v-8.58H29.419Z" fill="#31c4ef"/>
  <path id="Path_145" data-name="Path 145" d="M30.032,24.516H7.968v1.226H30.032Z" fill="#31c4ef"/>
  <path id="Path_146" data-name="Path 146" d="M30.032,26.968H7.968v1.226H30.032Z" fill="#31c4ef"/>
  <path id="Path_147" data-name="Path 147" d="M30.032,29.419H28.806v1.226h1.226Z" fill="#31c4ef"/>
  <path id="Path_148" data-name="Path 148" d="M27.581,29.419H7.968v1.226H27.581Z" fill="#31c4ef"/>
  <path id="Path_149" data-name="Path 149" d="M37.766,2.452H33.1V0H3.065A3.068,3.068,0,0,0,0,3.065V34.936A3.068,3.068,0,0,0,3.065,38H33.1V36.774H31.258a1.839,1.839,0,1,1,0-3.677H33.1V8.581h4.669L36.234,5.516ZM28.822,36.774H3.065a1.839,1.839,0,1,1,0-3.677H28.822a3,3,0,0,0,0,3.677Zm3.049-4.9H6.129V29.419H4.9v2.452H3.065a3.052,3.052,0,0,0-1.839.614V3.065A1.841,1.841,0,0,1,3.065,1.226H4.9V28.194H6.129V1.226H31.871ZM35.783,7.355H33.1V3.677h2.686l-.919,1.839Z" fill="#31c4ef"/>
  <path id="Path_150" data-name="Path 150" d="M26.968,34.323H4.9v1.226H26.968Z" fill="#31c4ef"/>
  <path id="Path_151" data-name="Path 151" d="M3.677,34.323H2.452v1.226H3.677Z" fill="#31c4ef"/>
</svg>
