<svg xmlns="http://www.w3.org/2000/svg" width="41" height="45.635" viewBox="0 0 41 45.635">
  <g id="brain" transform="translate(-26)">
    <g id="Group_65" data-name="Group 65" transform="translate(50.065 7.398)">
      <g id="Group_64" data-name="Group 64" transform="translate(0)">
        <path id="Path_175" data-name="Path 175" d="M296.891,83a.891.891,0,1,0,.891.891A.892.892,0,0,0,296.891,83Z" transform="translate(-296 -83)" fill="#0088d0"/>
      </g>
    </g>
    <g id="Group_67" data-name="Group 67" transform="translate(41.152 7.398)">
      <g id="Group_66" data-name="Group 66">
        <path id="Path_176" data-name="Path 176" d="M196.891,83a.891.891,0,1,0,.891.891A.892.892,0,0,0,196.891,83Z" transform="translate(-196 -83)" fill="#0088d0"/>
      </g>
    </g>
    <g id="Group_69" data-name="Group 69" transform="translate(26)">
      <g id="Group_68" data-name="Group 68" transform="translate(0)">
        <path id="Path_177" data-name="Path 177" d="M65.852,26.639A7.128,7.128,0,0,0,67,22.817a6.191,6.191,0,0,0-2.258-4.789,6.025,6.025,0,0,0,.475-2.341,6.644,6.644,0,0,0-3.6-5.875,5.342,5.342,0,0,0-4.057-5.829A6.421,6.421,0,0,0,51.848,0,6.264,6.264,0,0,0,46.5,3.21,6.264,6.264,0,0,0,41.152,0a6.421,6.421,0,0,0-5.709,3.982,5.341,5.341,0,0,0-4.057,5.829,6.644,6.644,0,0,0-3.6,5.875,6.025,6.025,0,0,0,.475,2.341A6.191,6.191,0,0,0,26,22.817a7.127,7.127,0,0,0,1.148,3.822,6.153,6.153,0,0,0,.715,7.989,6.469,6.469,0,0,0,6.159,7.441H34.1a7.027,7.027,0,0,0,12.4-.31,7.027,7.027,0,0,0,12.4.31h.081a6.463,6.463,0,0,0,6.239-6.507,5.706,5.706,0,0,0-.08-.934,6.153,6.153,0,0,0,.715-7.989ZM45.609,13.493a3.542,3.542,0,0,0-1.783-.48.891.891,0,1,0,0,1.783,1.785,1.785,0,0,1,1.783,1.783v16.95a7.114,7.114,0,0,0-5.348-2.422.891.891,0,0,0,0,1.783,5.354,5.354,0,0,1,5.348,5.348,5.56,5.56,0,0,1-5.348,5.615,5.363,5.363,0,0,1-4.84-3.109.892.892,0,0,0-.909-.51l-.188.024c-2.537.347-5.393-2.526-4.62-5.739a.891.891,0,0,0-.3-.894,4.437,4.437,0,0,1-1.625-3.41,4.386,4.386,0,0,1,.654-2.294,6.014,6.014,0,0,0,3.8,1.4.891.891,0,1,0,0-1.783,4.685,4.685,0,0,1-4.457-4.724,4.432,4.432,0,0,1,2.081-3.756.891.891,0,0,0,.3-1.193,4.386,4.386,0,0,1-.6-2.182,4.706,4.706,0,0,1,4.457-4.724,4.717,4.717,0,0,1,4.457,4.724.891.891,0,0,0,1.783,0A6.463,6.463,0,0,0,34.022,9.18a5.78,5.78,0,0,0-.889.07c0-.023,0-.046,0-.07a3.566,3.566,0,0,1,6.087-2.521A.891.891,0,1,0,40.477,5.4a5.312,5.312,0,0,0-2.956-1.5,4.5,4.5,0,0,1,3.631-2.114,4.717,4.717,0,0,1,4.457,4.724ZM60.761,29.324a6.016,6.016,0,0,0,3.8-1.4,4.386,4.386,0,0,1,.654,2.293,4.437,4.437,0,0,1-1.625,3.41.891.891,0,0,0-.3.894,4.4,4.4,0,0,1,.138,1.045c0,2.767-2.5,5-4.758,4.694l-.188-.024a.891.891,0,0,0-.909.51,5.363,5.363,0,0,1-4.84,3.109,5.56,5.56,0,0,1-5.348-5.615,5.354,5.354,0,0,1,5.348-5.348.891.891,0,0,0,0-1.783,7.114,7.114,0,0,0-5.348,2.422V16.578A1.785,1.785,0,0,1,49.174,14.8a.891.891,0,1,0,0-1.783,3.542,3.542,0,0,0-1.783.48V6.507a4.717,4.717,0,0,1,4.457-4.724A4.5,4.5,0,0,1,55.479,3.9a5.312,5.312,0,0,0-2.956,1.5.891.891,0,1,0,1.26,1.261A3.566,3.566,0,0,1,59.87,9.18c0,.024,0,.046,0,.07a5.78,5.78,0,0,0-.889-.07,6.463,6.463,0,0,0-6.239,6.507.891.891,0,1,0,1.783,0,4.464,4.464,0,1,1,8.913,0,4.386,4.386,0,0,1-.6,2.182.891.891,0,0,0,.3,1.193,4.432,4.432,0,0,1,2.081,3.756,4.684,4.684,0,0,1-4.457,4.724.891.891,0,0,0,0,1.783Z" transform="translate(-26)" fill="#0088d0"/>
      </g>
    </g>
    <g id="Group_71" data-name="Group 71" transform="translate(33.13 14.796)">
      <g id="Group_70" data-name="Group 70">
        <path id="Path_178" data-name="Path 178" d="M116.469,170.283a.891.891,0,0,0-1.259-.07,4.464,4.464,0,0,1-7.428-3.322.891.891,0,0,0-1.783,0,6.248,6.248,0,0,0,5.223,6.155,2.679,2.679,0,0,1-2.549,1.867.891.891,0,1,0,0,1.783,4.463,4.463,0,0,0,4.376-3.619,6.229,6.229,0,0,0,3.348-1.535A.891.891,0,0,0,116.469,170.283Z" transform="translate(-106 -166)" fill="#0088d0"/>
      </g>
    </g>
    <g id="Group_73" data-name="Group 73" transform="translate(33.13 34.672)">
      <g id="Group_72" data-name="Group 72">
        <path id="Path_179" data-name="Path 179" d="M106.891,389a.891.891,0,1,0,0,1.783,4.717,4.717,0,0,1,4.457,4.724.891.891,0,1,0,1.783,0A6.463,6.463,0,0,0,106.891,389Z" transform="translate(-106 -389)" fill="#0088d0"/>
      </g>
    </g>
    <g id="Group_75" data-name="Group 75" transform="translate(34.057 27.541)">
      <g id="Group_74" data-name="Group 74">
        <path id="Path_180" data-name="Path 180" d="M123.493,309a8.005,8.005,0,0,0-6.979,4.065.891.891,0,1,0,1.551.879,6.225,6.225,0,0,1,5.428-3.162.891.891,0,0,0,0-1.783Z" transform="translate(-116.398 -309)" fill="#0088d0"/>
      </g>
    </g>
    <g id="Group_77" data-name="Group 77" transform="translate(49.174 14.796)">
      <g id="Group_76" data-name="Group 76">
        <path id="Path_181" data-name="Path 181" d="M294.022,174.913a2.679,2.679,0,0,1-2.549-1.867,6.248,6.248,0,0,0,5.223-6.155.891.891,0,1,0-1.783,0,4.456,4.456,0,0,1-7.428,3.322.891.891,0,0,0-1.188,1.329,6.229,6.229,0,0,0,3.348,1.535,4.463,4.463,0,0,0,4.376,3.619.891.891,0,1,0,0-1.783Z" transform="translate(-286 -166)" fill="#0088d0"/>
      </g>
    </g>
    <g id="Group_79" data-name="Group 79" transform="translate(52.739 34.672)">
      <g id="Group_78" data-name="Group 78">
        <path id="Path_182" data-name="Path 182" d="M332.239,389A6.463,6.463,0,0,0,326,395.507a.891.891,0,1,0,1.783,0,4.717,4.717,0,0,1,4.457-4.724.891.891,0,0,0,0-1.783Z" transform="translate(-326 -389)" fill="#0088d0"/>
      </g>
    </g>
    <g id="Group_81" data-name="Group 81" transform="translate(50.957 27.541)">
      <g id="Group_80" data-name="Group 80" transform="translate(0)">
        <path id="Path_183" data-name="Path 183" d="M313.87,313.065A8,8,0,0,0,306.891,309a.891.891,0,0,0,0,1.783,6.226,6.226,0,0,1,5.428,3.162.891.891,0,0,0,1.551-.879Z" transform="translate(-306 -309)" fill="#0088d0"/>
      </g>
    </g>
  </g>
</svg>
