<svg xmlns="http://www.w3.org/2000/svg" width="35.157" height="46.368" viewBox="0 0 35.157 46.368">
  <g id="medal" transform="translate(-61.898 0)">
    <g id="Group_83" data-name="Group 83" transform="translate(66.243 4.354)">
      <g id="Group_82" data-name="Group 82">
        <path id="Path_184" data-name="Path 184" d="M129.031,49.5a13.2,13.2,0,0,0-16.382,19.883.731.731,0,0,0,1.153-.9,11.743,11.743,0,0,1,14.57-17.681.731.731,0,1,0,.659-1.3Z" transform="translate(-109.878 -48.082)" fill="#c90000"/>
      </g>
    </g>
    <g id="Group_85" data-name="Group 85" transform="translate(71.064 11.212)">
      <g id="Group_84" data-name="Group 84">
        <path id="Path_185" data-name="Path 185" d="M183.275,124.208a.731.731,0,0,0-1.3.659,11.743,11.743,0,0,1-17.682,14.567.731.731,0,1,0-.9,1.153,13.2,13.2,0,0,0,19.884-16.38Z" transform="translate(-163.109 -123.806)" fill="#c90000"/>
      </g>
    </g>
    <g id="Group_87" data-name="Group 87" transform="translate(86.961 7.481)">
      <g id="Group_86" data-name="Group 86" transform="translate(0)">
        <path id="Path_186" data-name="Path 186" d="M341.028,83.955c-.181-.2-.371-.407-.565-.6s-.4-.384-.6-.565a.731.731,0,0,0-.968,1.095c.182.161.363.331.536.5s.342.353.5.536a.731.731,0,0,0,1.1-.968Z" transform="translate(-338.647 -82.605)" fill="#c90000"/>
      </g>
    </g>
    <g id="Group_89" data-name="Group 89" transform="translate(61.898 0)">
      <g id="Group_88" data-name="Group 88" transform="translate(0 0)">
        <path id="Path_187" data-name="Path 187" d="M96.69,18.874a2.48,2.48,0,0,0,0-2.592l-.961-1.576a1.029,1.029,0,0,1-.138-.695l.287-1.821a2.479,2.479,0,0,0-.995-2.4l-1.49-1.084A1.029,1.029,0,0,1,93,8.118l-.434-1.793a2.479,2.479,0,0,0-1.834-1.834l-1.793-.434a1.028,1.028,0,0,1-.589-.394l-1.084-1.49a2.478,2.478,0,0,0-2.4-.995l-1.821.287a1.029,1.029,0,0,1-.695-.138L80.772.365a2.48,2.48,0,0,0-2.592,0L76.6,1.327a1.029,1.029,0,0,1-.695.138l-1.821-.287a2.479,2.479,0,0,0-2.4.995l-1.084,1.49a1.029,1.029,0,0,1-.589.394l-1.793.434a2.479,2.479,0,0,0-1.834,1.834l-.434,1.793a1.028,1.028,0,0,1-.394.589L64.071,9.79a2.478,2.478,0,0,0-.995,2.4l.287,1.821a1.029,1.029,0,0,1-.138.695l-.962,1.577a2.48,2.48,0,0,0,0,2.591l.961,1.577a1.029,1.029,0,0,1,.138.695l-.287,1.821a2.478,2.478,0,0,0,.995,2.4l1.49,1.084a1.028,1.028,0,0,1,.394.589l.434,1.793a2.479,2.479,0,0,0,1.834,1.834l.749.181L63.9,42.15a.731.731,0,0,0,.753,1.024l4.077-.487,2.349,3.368a.731.731,0,0,0,.6.313c.023,0,.046,0,.069,0a.731.731,0,0,0,.6-.429l5.175-11.545.656.4a2.48,2.48,0,0,0,2.592,0l.679-.414,5.182,11.559a.731.731,0,0,0,.6.429c.023,0,.046,0,.069,0a.731.731,0,0,0,.6-.313l2.349-3.368,4.077.487a.731.731,0,0,0,.753-1.024l-5.07-11.31.721-.174a2.479,2.479,0,0,0,1.834-1.834L93,27.039a1.028,1.028,0,0,1,.394-.589l1.49-1.084a2.478,2.478,0,0,0,.995-2.4l-.287-1.821a1.029,1.029,0,0,1,.138-.695ZM71.544,44.161l-1.861-2.669A.73.73,0,0,0,69,41.184l-3.231.386,4.617-10.3a1.022,1.022,0,0,1,.223.222l1.084,1.49a2.511,2.511,0,0,0,.345.384L69.6,38.789a.731.731,0,1,0,1.333.6l2.421-5.4a2.5,2.5,0,0,0,.73-.007l1.821-.287a1.026,1.026,0,0,1,.327,0ZM93.218,41.57l-3.231-.386a.73.73,0,0,0-.686.308l-1.861,2.669L82.745,33.69a1.029,1.029,0,0,1,.3,0l1.821.287a2.5,2.5,0,0,0,.759,0l2.423,5.406a.731.731,0,1,0,1.333-.6L86.94,33.348a2.515,2.515,0,0,0,.323-.363l1.084-1.49a1.026,1.026,0,0,1,.246-.24Zm2.224-23.457L94.48,19.69a2.492,2.492,0,0,0-.334,1.682l.287,1.821a1.023,1.023,0,0,1-.411.991l-1.49,1.084a2.492,2.492,0,0,0-.955,1.427l-.434,1.793a1.024,1.024,0,0,1-.757.757l-1.793.434a2.492,2.492,0,0,0-1.427.955l-1.084,1.49a1.023,1.023,0,0,1-.991.411l-1.821-.287a2.492,2.492,0,0,0-1.683.334l-1.576.961a1.024,1.024,0,0,1-1.07,0l-1.577-.961a2.491,2.491,0,0,0-1.683-.334l-1.821.287a1.023,1.023,0,0,1-.991-.411l-1.084-1.49a2.492,2.492,0,0,0-1.427-.955l-1.793-.434a1.024,1.024,0,0,1-.757-.757L67.375,26.7a2.491,2.491,0,0,0-.955-1.428l-1.49-1.084a1.023,1.023,0,0,1-.411-.991l.287-1.821a2.492,2.492,0,0,0-.334-1.683l-.961-1.577a1.024,1.024,0,0,1,0-1.07l.962-1.577a2.492,2.492,0,0,0,.334-1.682l-.287-1.821a1.023,1.023,0,0,1,.411-.991l1.49-1.084a2.492,2.492,0,0,0,.955-1.427l.434-1.793a1.024,1.024,0,0,1,.757-.757l1.793-.434a2.491,2.491,0,0,0,1.427-.955l1.084-1.49a1.023,1.023,0,0,1,.991-.411l1.821.287a2.491,2.491,0,0,0,1.683-.334l1.576-.961a1.024,1.024,0,0,1,1.07,0l1.577.961a2.491,2.491,0,0,0,1.683.334l1.821-.287a1.024,1.024,0,0,1,.991.411l1.084,1.49a2.492,2.492,0,0,0,1.427.955l1.793.434a1.024,1.024,0,0,1,.757.757l.434,1.793a2.491,2.491,0,0,0,.955,1.428l1.49,1.084a1.023,1.023,0,0,1,.411.991l-.287,1.821a2.492,2.492,0,0,0,.334,1.683l.961,1.577A1.023,1.023,0,0,1,95.442,18.113Z" transform="translate(-61.898 0)" fill="#c90000"/>
      </g>
    </g>
    <g id="Group_91" data-name="Group 91" transform="translate(70.859 9.092)">
      <g id="Group_90" data-name="Group 90" transform="translate(0)">
        <path id="Path_188" data-name="Path 188" d="M178.017,106.611a1.307,1.307,0,0,0-1.1-.9l-4.4-.521-1.855-4.021a1.321,1.321,0,0,0-2.4,0l-1.855,4.021-4.4.521a1.32,1.32,0,0,0-.741,2.28l3.251,3.006-.863,4.343a1.325,1.325,0,0,0,1.293,1.58,1.321,1.321,0,0,0,.647-.171l3.864-2.163,3.864,2.163a1.32,1.32,0,0,0,1.94-1.409l-.863-4.343,3.251-3.006A1.307,1.307,0,0,0,178.017,106.611Zm-4.9,3.588a.731.731,0,0,0-.221.679l.883,4.444-3.954-2.213a.731.731,0,0,0-.714,0l-3.954,2.213.883-4.444a.73.73,0,0,0-.221-.679l-3.327-3.076,4.5-.534a.731.731,0,0,0,.578-.419l1.9-4.114,1.9,4.114a.731.731,0,0,0,.578.419l4.5.534Z" transform="translate(-160.849 -100.398)" fill="#c90000"/>
      </g>
    </g>
  </g>
</svg>
